<?xml version="1.0" standalone="no"?>
<!DOCTYPE svg PUBLIC "-//W3C//DTD SVG 20010904//EN"
 "http://www.w3.org/TR/2001/REC-SVG-20010904/DTD/svg10.dtd">
<svg version="1.0" xmlns="http://www.w3.org/2000/svg"
 width="512.000000pt" height="512.000000pt" viewBox="0 0 512.000000 512.000000"
 preserveAspectRatio="xMidYMid meet">
<metadata>
Created by potrace 1.14, written by Peter Selinger 2001-2017
</metadata>
<g transform="translate(0.000000,512.000000) scale(0.100000,-0.100000)"
fill="#000000" stroke="none">
<path d="M2548 3343 l-3 -1618 -28 -73 c-102 -264 -323 -426 -592 -435 -96 -4
-231 32 -329 87 -26 14 -48 26 -51 26 -3 0 -9 0 -13 0 -12 0 -102 87 -134 130
-30 40 -82 142 -93 180 -3 14 10 -9 31 -50 40 -82 114 -177 183 -235 l24 -20
-7 25 c-51 184 -39 339 40 497 114 227 343 366 587 356 43 -2 95 -7 117 -12
l40 -9 0 414 0 414 -47 1 c-27 1 -73 2 -103 3 -30 1 -63 -2 -72 -6 -10 -5 -39
-10 -66 -13 -212 -18 -462 -94 -600 -182 -29 -18 -55 -33 -58 -33 -12 0 -160
-115 -221 -173 -79 -74 -178 -195 -228 -277 -20 -33 -39 -60 -42 -60 -7 0 33
65 96 154 112 160 317 337 494 428 172 89 404 152 592 162 19 1 20 9 22 137
l2 137 -37 5 c-84 12 -347 -1 -439 -22 -236 -52 -420 -141 -603 -289 -256
-207 -429 -494 -502 -830 -37 -174 -31 -445 15 -647 43 -186 182 -447 320
-600 30 -33 66 -82 81 -110 89 -162 270 -339 466 -458 127 -77 327 -154 448
-173 20 -3 40 -8 44 -10 12 -7 140 -17 228 -18 121 0 233 12 325 35 44 11 87
22 95 24 73 17 225 85 330 148 170 103 332 259 450 432 112 166 200 392 225
580 3 22 8 56 10 75 3 19 5 414 5 878 0 463 2 842 6 842 3 0 31 -19 62 -43
257 -195 567 -300 877 -297 61 0 118 1 128 2 16 1 17 26 17 375 l0 373 -57 1
c-62 0 -114 5 -150 14 -23 5 -23 8 -23 150 l0 145 -52 1 c-73 0 -135 7 -188
20 -25 6 -55 13 -68 15 -42 8 -156 55 -222 91 -89 48 -198 130 -205 154 -4 10
-11 16 -17 13 -6 -4 -8 -3 -5 3 3 5 -7 44 -24 86 -26 67 -49 151 -63 228 -2
13 -5 54 -5 92 l-1 67 -94 0 c-52 0 -97 4 -100 8 -7 12 -16 62 -31 177 -2 17
-4 51 -4 78 l-1 47 -390 0 -390 0 -2 -1617z m1833 249 c-7 -2 -18 1 -23 6 -8
8 -4 9 13 5 13 -4 18 -8 10 -11z m-3515 -1354 c-9 -12 -16 -19 -16 -15 0 11
24 47 28 42 2 -2 -3 -14 -12 -27z m-25 -51 c-10 -9 -11 -8 -5 6 3 10 9 15 12
12 3 -3 0 -11 -7 -18z m-28 -62 c-3 -9 -8 -14 -10 -11 -3 3 -2 9 2 15 9 16 15
13 8 -4z m474 -407 c-3 -8 -6 -5 -6 6 -1 11 2 17 5 13 3 -3 4 -12 1 -19z m297
-474 c3 -8 2 -12 -4 -9 -6 3 -10 10 -10 16 0 14 7 11 14 -7z m1109 -36 c-15
-28 -62 -86 -104 -129 -85 -85 -195 -148 -303 -173 -75 -18 -205 -18 -278 -1
-138 32 -289 130 -368 240 -8 11 7 -3 33 -32 55 -60 167 -137 238 -164 103
-40 228 -54 318 -37 25 5 59 11 75 14 16 3 63 20 103 39 112 52 216 144 274
243 39 67 49 68 12 0z m-1083 -8 c6 -11 8 -20 6 -20 -3 0 -10 9 -16 20 -6 11
-8 20 -6 20 3 0 10 -9 16 -20z m-575 -480 c10 -11 16 -20 13 -20 -3 0 -13 9
-23 20 -10 11 -16 20 -13 20 3 0 13 -9 23 -20z"/>
</g>
</svg>
